<?xml version="1.0" encoding="UTF-8" standalone="no"?>
<!-- Created with Inkscape (http://www.inkscape.org/) -->

<svg
   xmlns:dc="http://purl.org/dc/elements/1.1/"
   xmlns:cc="http://creativecommons.org/ns#"
   xmlns:rdf="http://www.w3.org/1999/02/22-rdf-syntax-ns#"
   xmlns:svg="http://www.w3.org/2000/svg"
   xmlns="http://www.w3.org/2000/svg"
   xmlns:sodipodi="http://sodipodi.sourceforge.net/DTD/sodipodi-0.dtd"
   xmlns:inkscape="http://www.inkscape.org/namespaces/inkscape"
   width="55.298031mm"
   height="48.429611mm"
   viewBox="0 0 55.298031 48.429611"
   version="1.1"
   id="svg8"
   inkscape:version="0.92.3 (2405546, 2018-03-11)"
   sodipodi:docname="drawing.svg">
  <defs
     id="defs2" />
  <sodipodi:namedview
     id="base"
     pagecolor="#ffffff"
     bordercolor="#666666"
     borderopacity="1.0"
     inkscape:pageopacity="0.0"
     inkscape:pageshadow="2"
     inkscape:zoom="0.49497475"
     inkscape:cx="355.30801"
     inkscape:cy="621.64938"
     inkscape:document-units="mm"
     inkscape:current-layer="layer1"
     showgrid="false"
     inkscape:window-width="1920"
     inkscape:window-height="1057"
     inkscape:window-x="2552"
     inkscape:window-y="-8"
     inkscape:window-maximized="1"
     fit-margin-top="0"
     fit-margin-left="0"
     fit-margin-right="0"
     fit-margin-bottom="0" />
  <metadata
     id="metadata5">
    <rdf:RDF>
      <cc:Work
         rdf:about="">
        <dc:format>image/svg+xml</dc:format>
        <dc:type
           rdf:resource="http://purl.org/dc/dcmitype/StillImage" />
        <dc:title></dc:title>
      </cc:Work>
    </rdf:RDF>
  </metadata>
  <g
     inkscape:label="Layer 1"
     inkscape:groupmode="layer"
     id="layer1"
     transform="translate(0,-248.57039)">
    <path
       style="fill:#000000;stroke-width:0.26458332"
       d="m 1.2e-4,290.78228 v -6.21771 l 1.12448,0.002 1.12448,0.002 1.02627,2.70985 c 0.56444,1.49041 1.41746,3.78141 1.89559,5.0911 0.48524,1.32919 0.93176,2.2059 1.01064,1.98437 0.22924,-0.64376 3.2819901,-8.82124 3.4817301,-9.32656 0.13057,-0.33034 0.4781699,-0.46302 1.2130399,-0.46302 l 1.03002,2e-5 v 6.21771 6.21771 h -0.65574 -0.65575 l -0.0719,-5.09323 -0.0719,-5.09323 -1.8894499,5.02709 C 6.89072,296.28601 6.59995,296.87641 6.04775,296.94483 c -0.58128,0.072 -0.75102,-0.25711 -2.45608,-4.7625 -1.00741,-2.66193 -1.90025,-4.92325 -1.98411,-5.02515 -0.0839,-0.10191 -0.10982,2.07098 -0.0577,4.82864 l 0.0947,5.01393 H 0.82228 0 Z m 14.99306,6.04132 c -0.097,-0.097 -0.17639,-2.89498 -0.17639,-6.21771 v -6.04132 h 4.7625 4.7625 v 0.66146 0.66146 h -3.83646 -3.83646 v 1.98438 1.98437 h 3.57188 3.57187 v 0.66146 0.66146 h -3.57187 -3.57188 v 2.26221 2.26222 l 3.96915,-0.0794 3.96914,-0.0794 -2.6e-4,0.72761 -5.3e-4,0.7276 h -4.7184 c -2.59512,0 -4.79778,-0.0794 -4.89479,-0.17639 z m 11.99444,-6.04132 v -6.21771 h 2.84602 c 3.20404,0 4.21345,0.21544 5.6394,1.20362 2.12634,1.47356 2.77581,5.30088 1.37031,8.07523 -1.24128,2.45018 -2.83203,3.15275 -7.14375,3.15509 l -2.71198,10e-4 z m 6.65024,4.19452 c 2.54714,-1.48761 3.09198,-5.83338 0.97883,-7.80736 -0.97566,-0.9114 -2.23382,-1.27855 -4.38792,-1.28047 l -1.65365,-10e-4 v 4.7184 c 0,2.59513 0.0893,4.81025 0.19844,4.9225 0.38097,0.39184 3.93994,-0.0117 4.8643,-0.55159 z m 6.49073,1.8468 c -0.097,-0.097 -0.17639,-2.89498 -0.17639,-6.21771 v -6.04132 h 0.92604 0.92604 v 6.21771 6.21771 h -0.74965 c -0.41231,0 -0.82903,-0.0794 -0.92604,-0.17639 z m 3.52778,-0.0729 c 0,-0.15556 1.09543,-2.96107 2.43428,-6.23448 l 2.43428,-5.95164 h 0.97096 0.97096 l 2.41559,5.94018 c 1.32858,3.2671 2.41559,6.07261 2.41559,6.23447 0,0.17091 -0.34667,0.25954 -0.82688,0.21139 -0.75852,-0.0761 -0.8813,-0.23055 -1.48524,-1.86885 l -0.65837,-1.78594 h -2.81628 -2.81628 l -0.68795,1.78594 c -0.62929,1.63367 -0.75882,1.79301 -1.5193,1.86885 -0.46532,0.0464 -0.83136,-0.0416 -0.83136,-0.19992 z m 7.9375,-4.9962 c 0,-0.12012 -0.46845,-1.45958 -1.041,-2.97656 -0.80803,-2.1409 -1.0854,-2.63973 -1.23941,-2.22898 -0.10913,0.29104 -0.59318,1.54038 -1.07567,2.7763 -0.48249,1.23593 -0.87726,2.33726 -0.87726,2.4474 0,0.11014 0.9525,0.20026 2.11667,0.20026 1.16417,0 2.11667,-0.0983 2.11667,-0.21842 z M 27.76252,274.04739 c -0.35223,-1.35396 -0.35113,-1.95158 0.01,-5.43136 l 0.40575,-3.91 1.22782,-1.04678 c 1.87197,-1.59594 1.94034,-1.33957 1.30096,4.87884 -0.29373,2.8567 -0.65636,5.42255 -0.80586,5.70188 -0.2581,0.48228 -1.27314,1.32877 -1.59333,1.32877 -0.0822,0 -0.32764,-0.68461 -0.54532,-1.52135 z m 7.22318,1.34427 c -0.18496,-0.0744 -0.51124,-0.47362 -0.72506,-0.8871 l -0.38876,-0.75179 1.46259,-0.54722 c 1.2931,-0.48381 2.05425,-0.54723 6.56849,-0.54723 h 5.10591 l 0.40504,1.45521 0.40503,1.45521 -6.24847,-0.0209 c -3.43666,-0.0115 -6.39981,-0.0818 -6.58477,-0.15619 z M 1.58455,275.10572 c -0.002,-0.10914 2.40932,-6.12424 5.35781,-13.36688 l 5.36089,-13.16845 2.07618,0.0716 2.07618,0.0716 5.26601,13.07244 c 2.8963,7.18984 5.266,13.17273 5.266,13.29531 0,0.12258 -0.80396,0.22288 -1.78659,0.22288 h -1.78659 l -1.55115,-3.96875 -1.55115,-3.96875 H 14.31205 8.3119501 L 6.76451,271.33547 5.21707,275.30422 H 3.40234 c -0.99809,0 -1.8161,-0.0893 -1.81779,-0.19844 z m 17.46557,-10.69249 c 0,-0.16918 -0.94417,-2.75879 -2.09815,-5.75469 -1.15398,-2.9959 -2.18111,-5.78323 -2.2825,-6.19407 -0.21899,-0.8873 -0.46347,-0.68812 -0.91688,0.74698 -0.18391,0.58208 -1.21032,3.31506 -2.28092,6.07328 -1.0706,2.75822 -1.9465499,5.1097 -1.9465499,5.22552 0,0.11582 2.1431299,0.21057 4.7624999,0.21057 3.44257,0 4.7625,-0.0853 4.7625,-0.30759 z m 15.08073,7.76601 c -2.6e-4,-0.39135 0.18682,-2.55701 0.41578,-4.81258 0.50468,-4.97158 0.72682,-5.3314 2.24037,-3.62899 0.78117,0.87865 0.96947,1.28395 0.88699,1.90919 -0.0576,0.43657 -0.22697,1.982 -0.3764,3.43431 -0.14944,1.4523 -0.35742,2.7164 -0.46219,2.8091 -0.10477,0.0927 -0.75603,0.35575 -1.44726,0.58454 l -1.25677,0.41598 -5.3e-4,-0.71155 z m 3.07158,-9.28091 -0.7321,-0.76415 0.90601,-0.69105 c 0.89908,-0.68576 0.94243,-0.69106 5.66019,-0.69106 h 4.75417 l 0.72218,0.75379 0.72217,0.75379 -0.9196,0.70142 c -0.91564,0.6984 -0.94001,0.70142 -5.65026,0.70142 h -4.73065 z m -7.59122,-2.23947 -0.94829,-1.09741 0.36046,-3.70417 c 0.39595,-4.06869 1.35645,-7.18778 2.12286,-6.89368 0.21042,0.0807 0.42931,0.14681 0.48644,0.14681 0.0571,0 0.27847,0.33767 0.4919,0.75039 0.34435,0.6659 0.33096,1.299 -0.11889,5.6224 -0.27882,2.6796 -0.50991,5.07617 -0.51354,5.32571 -0.004,0.24954 -0.21497,0.56478 -0.46963,0.70054 -0.36846,0.19642 -0.65669,0.0227 -1.41131,-0.85059 z m 19.27259,-0.009 -0.93408,-1.11745 0.38788,-3.82197 c 0.2975,-2.93148 0.54551,-4.17643 1.06445,-5.34332 0.72467,-1.62948 0.77928,-1.67491 1.421,-1.18221 0.95564,0.73372 0.99524,1.23462 0.48569,6.14314 -0.27191,2.61938 -0.49759,5.00176 -0.5015,5.29417 -0.004,0.29242 -0.22813,0.66969 -0.49824,0.83838 -0.42295,0.26413 -0.6208,0.15158 -1.4252,-0.81074 z m -11.31285,-9.41587 c -1.26751,-0.5245 -1.36348,-0.85227 -0.50556,-1.72671 0.48292,-0.49222 0.92745,-0.5348 6.3671,-0.60989 4.72815,-0.0653 5.82167,-0.0146 5.71077,0.26458 -0.0754,0.18992 -0.34175,0.85133 -0.5918,1.46979 l -0.45463,1.12448 -4.66763,-0.0148 c -3.9269,-0.0124 -4.85657,-0.093 -5.85825,-0.50747 z"
       id="path3724"
       inkscape:connector-curvature="0" />
  </g>
</svg>
